<svg width="23" height="23" viewBox="0 0 23 23" fill="none" xmlns="http://www.w3.org/2000/svg">
<path d="M11.75 22.5C10.1938 22.5 8.73125 22.2047 7.3625 21.6141C5.99375 21.0234 4.80312 20.2219 3.79062 19.2094C2.77812 18.1969 1.97656 17.0063 1.38594 15.6375C0.795312 14.2688 0.5 12.8062 0.5 11.25C0.5 9.69375 0.795312 8.23125 1.38594 6.8625C1.97656 5.49375 2.77812 4.30312 3.79062 3.29062C4.80312 2.27812 5.99375 1.47656 7.3625 0.885938C8.73125 0.295312 10.1938 0 11.75 0C13.3062 0 14.7688 0.295312 16.1375 0.885938C17.5063 1.47656 18.6969 2.27812 19.7094 3.29062C20.7219 4.30312 21.5234 5.49375 22.1141 6.8625C22.7047 8.23125 23 9.69375 23 11.25C23 12.8062 22.7047 14.2688 22.1141 15.6375C21.5234 17.0063 20.7219 18.1969 19.7094 19.2094C18.6969 20.2219 17.5063 21.0234 16.1375 21.6141C14.7688 22.2047 13.3062 22.5 11.75 22.5ZM11.75 20.25C14.2625 20.25 16.3906 19.3781 18.1344 17.6344C19.8781 15.8906 20.75 13.7625 20.75 11.25C20.75 8.7375 19.8781 6.60938 18.1344 4.86563C16.3906 3.12188 14.2625 2.25 11.75 2.25C9.2375 2.25 7.10938 3.12188 5.36563 4.86563C3.62188 6.60938 2.75 8.7375 2.75 11.25C2.75 13.7625 3.62188 15.8906 5.36563 17.6344C7.10938 19.3781 9.2375 20.25 11.75 20.25Z" fill="#E25757"/>
</svg>
