<svg width="84" height="83" viewBox="0 0 84 83" fill="none" xmlns="http://www.w3.org/2000/svg">
<rect y="0.25" width="83.25" height="81.9692" rx="40.9846" fill="#343434"/>
<path d="M41.625 27.8528L28.4282 38.4091V40.7513L41.625 30.1928L54.8218 40.7513V38.4091L41.625 27.8528ZM41.625 31.509L31.1704 39.8716V54.1024H36.5405C36.5462 52.2571 36.5862 49.5606 37.1232 47.1898C37.4203 45.893 37.8602 44.6818 38.5743 43.762C39.2941 42.8366 40.3282 42.2196 41.625 42.2196C42.9218 42.2196 43.9559 42.8366 44.6757 43.762C45.3898 44.6818 45.8297 45.893 46.1268 47.1898C46.6638 49.5606 46.7038 52.2571 46.7095 54.1024H52.0796V39.8716L41.625 31.509ZM36.3634 37.6035C36.5912 37.6093 36.8289 37.6525 37.0547 37.7292C37.3065 37.8136 37.5346 37.9364 37.7133 38.0837C37.892 38.2311 38.0141 38.3972 38.0659 38.5633H45.1841C45.2359 38.3972 45.358 38.2311 45.5367 38.0837C45.7154 37.9364 45.9435 37.8136 46.1953 37.7292C46.4211 37.6525 46.6588 37.6093 46.8866 37.6035C47.1311 37.599 47.3546 37.638 47.5336 37.7164C47.7126 37.7949 47.8404 37.9098 47.9035 38.0492C47.9855 38.2279 47.9562 38.4372 47.8208 38.6414C47.6854 38.8456 47.4521 39.032 47.1608 39.1689C47.413 39.3093 47.6083 39.4869 47.7183 39.676C47.8282 39.865 47.847 40.0556 47.7721 40.2201C47.7262 40.322 47.6456 40.4113 47.5349 40.4828C47.4241 40.5544 47.2854 40.6068 47.1267 40.6371C46.968 40.6673 46.7924 40.6748 46.61 40.6592C46.4276 40.6435 46.242 40.6049 46.0639 40.5457C45.7811 40.4507 45.5292 40.3075 45.3437 40.1363C45.1582 39.9652 45.0484 39.7746 45.0299 39.5916H38.2201C38.2016 39.7746 38.0918 39.9652 37.9063 40.1363C37.7208 40.3075 37.4689 40.4507 37.1861 40.5457C37.008 40.6049 36.8224 40.6435 36.64 40.6592C36.4576 40.6748 36.282 40.6673 36.1233 40.6371C35.9646 40.6068 35.8259 40.5544 35.7151 40.4828C35.6044 40.4113 35.5238 40.322 35.4779 40.2201C35.403 40.0556 35.4218 39.865 35.5317 39.676C35.6417 39.4869 35.837 39.3093 36.0892 39.1689C35.7979 39.032 35.5646 38.8456 35.4292 38.6414C35.2938 38.4372 35.2645 38.2279 35.3465 38.0492C35.4096 37.9098 35.5374 37.7949 35.7164 37.7164C35.8954 37.638 36.1189 37.599 36.3634 37.6035Z" fill="white"/>
</svg>
