<svg width="74" height="73" viewBox="0 0 74 73" fill="none" xmlns="http://www.w3.org/2000/svg">
<rect width="74" height="72.8615" rx="36.4308" fill="#F5F5F5"/>
<path d="M37 23L24 33.4559V35.7759L37 25.3178L50 35.7759V33.4559L37 23ZM37 26.6215L26.7013 34.9045V49H31.9913C31.997 47.1723 32.0364 44.5014 32.5654 42.1531C32.858 40.8686 33.2913 39.669 33.9948 38.758C34.7039 37.8413 35.7225 37.2302 37 37.2302C38.2775 37.2302 39.2961 37.8413 40.0052 38.758C40.7087 39.669 41.142 40.8686 41.4346 42.1531C41.9636 44.5014 42.003 47.1723 42.0087 49H47.2987V34.9045L37 26.6215ZM31.8169 32.658C32.0413 32.6638 32.2754 32.7066 32.4978 32.7825C32.7459 32.8661 32.9706 32.9877 33.1466 33.1337C33.3227 33.2797 33.4429 33.4442 33.4939 33.6087H40.5061C40.5571 33.4442 40.6773 33.2797 40.8534 33.1337C41.0294 32.9877 41.2541 32.8661 41.5022 32.7825C41.7246 32.7066 41.9587 32.6638 42.1831 32.658C42.424 32.6535 42.6442 32.6922 42.8205 32.7699C42.9968 32.8476 43.1227 32.9614 43.1848 33.0994C43.2656 33.2764 43.2368 33.4838 43.1034 33.686C42.97 33.8883 42.7402 34.073 42.4532 34.2085C42.7017 34.3476 42.8941 34.5235 43.0024 34.7108C43.1107 34.898 43.1293 35.0868 43.0554 35.2497C43.0103 35.3506 42.9308 35.4391 42.8217 35.51C42.7126 35.5809 42.576 35.6328 42.4196 35.6627C42.2633 35.6927 42.0903 35.7001 41.9107 35.6846C41.731 35.6691 41.5482 35.6309 41.3727 35.5722C41.0942 35.4781 40.846 35.3363 40.6633 35.1667C40.4805 34.9972 40.3724 34.8085 40.3541 34.6272H33.6459C33.6276 34.8085 33.5195 34.9972 33.3367 35.1667C33.154 35.3363 32.9058 35.4781 32.6273 35.5722C32.4518 35.6309 32.269 35.6691 32.0893 35.6846C31.9097 35.7001 31.7367 35.6927 31.5804 35.6627C31.424 35.6328 31.2874 35.5809 31.1783 35.51C31.0692 35.4391 30.9897 35.3506 30.9446 35.2497C30.8707 35.0868 30.8893 34.898 30.9976 34.7108C31.1059 34.5235 31.2983 34.3476 31.5468 34.2085C31.2598 34.073 31.03 33.8883 30.8966 33.686C30.7632 33.4838 30.7344 33.2764 30.8152 33.0994C30.8773 32.9614 31.0032 32.8476 31.1795 32.7699C31.3558 32.6922 31.576 32.6535 31.8169 32.658Z" fill="#585858"/>
</svg>