<svg width="31" height="30" viewBox="0 0 31 30" fill="none" xmlns="http://www.w3.org/2000/svg">
<rect x="0.5" y="0.5" width="30" height="29" rx="6.5" fill="#EFB8C8" stroke="white"/>
<g clip-path="url(#clip0_1491_15398)">
<rect x="6.7998" y="6.59998" width="17.4" height="16.8" rx="2" fill="#EFB8C8"/>
<path d="M23.4744 19.9C23.4744 20.2713 23.3216 20.6273 23.0497 20.8899C22.7778 21.1525 22.409 21.3 22.0244 21.3H8.97441C8.58985 21.3 8.22104 21.1525 7.94911 20.8899C7.67718 20.6273 7.52441 20.2713 7.52441 19.9V12.2C7.52441 11.8286 7.67718 11.4726 7.94911 11.21C8.22104 10.9475 8.58985 10.8 8.97441 10.8H11.8744L13.3244 8.69995H17.6744L19.1244 10.8H22.0244C22.409 10.8 22.7778 10.9475 23.0497 11.21C23.3216 11.4726 23.4744 11.8286 23.4744 12.2V19.9Z" fill="#EFB8C8"/>
<path d="M15.4994 18.5C17.101 18.5 18.3994 17.2463 18.3994 15.7C18.3994 14.1536 17.101 12.9 15.4994 12.9C13.8978 12.9 12.5994 14.1536 12.5994 15.7C12.5994 17.2463 13.8978 18.5 15.4994 18.5Z" fill="#EFB8C8"/>
<path d="M23.4744 19.9C23.4744 20.2713 23.3216 20.6273 23.0497 20.8899C22.7778 21.1525 22.409 21.3 22.0244 21.3H8.97441C8.58985 21.3 8.22104 21.1525 7.94911 20.8899C7.67718 20.6273 7.52441 20.2713 7.52441 19.9V12.2C7.52441 11.8286 7.67718 11.4726 7.94911 11.21C8.22104 10.9475 8.58985 10.8 8.97441 10.8H11.8744L13.3244 8.69995H17.6744L19.1244 10.8H22.0244C22.409 10.8 22.7778 10.9475 23.0497 11.21C23.3216 11.4726 23.4744 11.8286 23.4744 12.2V19.9Z" stroke="white" stroke-width="1.3" stroke-linecap="round" stroke-linejoin="round"/>
<path d="M15.4994 18.5C17.101 18.5 18.3994 17.2463 18.3994 15.7C18.3994 14.1536 17.101 12.9 15.4994 12.9C13.8978 12.9 12.5994 14.1536 12.5994 15.7C12.5994 17.2463 13.8978 18.5 15.4994 18.5Z" stroke="white" stroke-width="1.3" stroke-linecap="round" stroke-linejoin="round"/>
</g>
<defs>
<clipPath id="clip0_1491_15398">
<rect x="6.7998" y="6.59998" width="17.4" height="16.8" rx="2" fill="white"/>
</clipPath>
</defs>
</svg>
