<svg width="268" height="151" viewBox="0 0 268 151" fill="none" xmlns="http://www.w3.org/2000/svg">
<g clip-path="url(#clip0_2157_2099)">
<rect width="268" height="151" rx="8" fill="#343434"/>
<g clip-path="url(#clip1_2157_2099)">
<path d="M211.473 31.5874C217.542 35.0206 217.57 43.7528 211.523 47.2252L200.332 53.6527C196.263 55.9893 194.82 61.1568 197.089 65.2634C199.441 69.5202 204.854 70.9792 209.027 68.4816L220.412 61.6672C226.436 58.0618 234.084 62.4344 234.034 69.4545L233.937 82.8787C233.905 87.3544 237.524 91 242 91C246.476 91 250.095 87.3545 250.063 82.8787L249.966 69.4545C249.916 62.4344 257.564 58.0618 263.588 61.6672L274.987 68.4896C279.152 70.9829 284.555 69.5264 286.903 65.2771C289.174 61.1672 287.72 55.9952 283.64 53.6714L272.349 47.2415C266.265 43.7766 266.294 34.9973 272.4 31.5717L283.543 25.3201C287.678 23.0003 289.183 17.7892 286.922 13.6219C284.569 9.28699 279.079 7.7847 274.847 10.3177L263.589 17.0562C257.565 20.6617 249.916 16.2887 249.967 9.26837L250.063 -3.87866C250.095 -8.35438 246.476 -12 242 -12C237.524 -12 233.905 -8.35438 233.937 -3.87866L234.033 9.26836C234.084 16.2887 226.435 20.6617 220.411 17.0562L209.166 10.3257C204.927 7.78837 199.427 9.29328 197.071 13.6357C194.811 17.7996 196.305 23.0063 200.428 25.339L211.473 31.5874Z" fill="#828282"/>
</g>
<g clip-path="url(#clip2_2157_2099)">
<path d="M-15.5262 100.218C-11.4646 102.503 -11.4457 108.345 -15.4925 110.657L-23.0528 114.975C-25.7946 116.542 -26.7666 120.022 -25.2332 122.782C-23.654 125.625 -20.0374 126.6 -17.2431 124.937L-9.43364 120.287C-5.4175 117.896 -0.330563 120.812 -0.364433 125.486L-0.429977 134.531C-0.451824 137.545 1.98565 140 5 140C8.01435 140 10.4518 137.545 10.43 134.531L10.3644 125.486C10.3306 120.812 15.4175 117.896 19.4336 120.287L27.2521 124.942C30.0415 126.603 33.6517 125.629 35.2281 122.791C36.7627 120.029 35.7831 116.546 33.0336 114.988L25.4064 110.667C21.3346 108.361 21.3535 102.488 25.44 100.207L32.9689 96.006C35.7552 94.4511 36.7688 90.9418 35.2406 88.1407C33.661 85.2455 29.9927 84.2414 27.1588 85.9286L19.4342 90.5275C15.4179 92.9186 10.3309 90.0023 10.365 85.3282L10.4297 76.4695C10.4517 73.4552 8.0143 71 5 71C1.98569 71 -0.451691 73.4552 -0.429684 76.4695L-0.365009 85.3282C-0.330887 90.0023 -5.41794 92.9186 -9.43421 90.5275L-17.1498 85.934C-19.9886 84.2439 -23.6632 85.2497 -25.2456 88.15C-26.7726 90.9488 -25.7667 94.4552 -22.9881 96.0187L-15.5262 100.218Z" fill="#828282"/>
</g>
</g>
<defs>
<clipPath id="clip0_2157_2099">
<rect width="268" height="151" fill="white"/>
</clipPath>
<clipPath id="clip1_2157_2099">
<rect x="193" y="-12" width="98" height="103" rx="23" fill="white"/>
</clipPath>
<clipPath id="clip2_2157_2099">
<rect x="-28" y="71" width="66" height="69" rx="11" fill="white"/>
</clipPath>
</defs>
</svg>
