<svg width="19" height="22" viewBox="0 0 19 22" fill="none" xmlns="http://www.w3.org/2000/svg">
<path d="M11 3.5C11 4.32843 10.3284 5 9.5 5C8.6716 5 8 4.32843 8 3.5C8 2.67157 9.5 1 9.5 1C9.5 1 11 2.67157 11 3.5Z" stroke="#1B1B1B" stroke-linejoin="round"/>
<path d="M9.5 5V8" stroke="#1B1B1B" stroke-linecap="round" stroke-linejoin="round"/>
<path d="M15.1667 13C16.7315 13 18 11.8807 18 10.5C18 9.1193 16.7315 8 15.1667 8H3.83333C2.26853 8 1 9.1193 1 10.5C1 11.8807 2.26853 13 3.83333 13C5.20408 13 6.40415 12.1411 6.66667 11C6.92919 12.1411 8.1293 13 9.5 13C10.8707 13 12.0708 12.1411 12.3333 11C12.5959 12.1411 13.7959 13 15.1667 13Z" stroke="#1B1B1B" stroke-linejoin="round"/>
<path d="M2.5 13L3.02089 15.5796C3.54532 18.1768 3.80754 19.4754 4.69608 20.2377C5.58462 21 6.83608 21 9.339 21H9.661C12.1639 21 13.4154 21 14.3039 20.2377C15.1925 19.4754 15.4547 18.1768 15.9791 15.5796L16.5 13" stroke="#1B1B1B" stroke-linecap="round" stroke-linejoin="round"/>
</svg>
