<svg width="31" height="30" viewBox="0 0 31 30" fill="none" xmlns="http://www.w3.org/2000/svg">
<rect x="0.5" y="0.5" width="30" height="29" rx="6.5" fill="#343434" stroke="#D1D3D9"/>
<g clip-path="url(#clip0_2157_2107)">
<rect x="6.7998" y="6.6001" width="17.4" height="16.8" rx="2" fill="#343434"/>
<path d="M23.4744 19.9002C23.4744 20.2715 23.3216 20.6276 23.0497 20.8901C22.7778 21.1527 22.409 21.3002 22.0244 21.3002H8.97441C8.58985 21.3002 8.22104 21.1527 7.94911 20.8901C7.67718 20.6276 7.52441 20.2715 7.52441 19.9002V12.2002C7.52441 11.8289 7.67718 11.4728 7.94911 11.2102C8.22104 10.9477 8.58985 10.8002 8.97441 10.8002H11.8744L13.3244 8.7002H17.6744L19.1244 10.8002H22.0244C22.409 10.8002 22.7778 10.9477 23.0497 11.2102C23.3216 11.4728 23.4744 11.8289 23.4744 12.2002V19.9002Z" fill="#343434"/>
<path d="M15.4994 18.5002C17.101 18.5002 18.3994 17.2466 18.3994 15.7002C18.3994 14.1538 17.101 12.9002 15.4994 12.9002C13.8978 12.9002 12.5994 14.1538 12.5994 15.7002C12.5994 17.2466 13.8978 18.5002 15.4994 18.5002Z" fill="#343434"/>
<path d="M23.4744 19.9002C23.4744 20.2715 23.3216 20.6276 23.0497 20.8901C22.7778 21.1527 22.409 21.3002 22.0244 21.3002H8.97441C8.58985 21.3002 8.22104 21.1527 7.94911 20.8901C7.67718 20.6276 7.52441 20.2715 7.52441 19.9002V12.2002C7.52441 11.8289 7.67718 11.4728 7.94911 11.2102C8.22104 10.9477 8.58985 10.8002 8.97441 10.8002H11.8744L13.3244 8.7002H17.6744L19.1244 10.8002H22.0244C22.409 10.8002 22.7778 10.9477 23.0497 11.2102C23.3216 11.4728 23.4744 11.8289 23.4744 12.2002V19.9002Z" stroke="#D1D3D9" stroke-width="1.3" stroke-linecap="round" stroke-linejoin="round"/>
<path d="M15.4994 18.5002C17.101 18.5002 18.3994 17.2466 18.3994 15.7002C18.3994 14.1538 17.101 12.9002 15.4994 12.9002C13.8978 12.9002 12.5994 14.1538 12.5994 15.7002C12.5994 17.2466 13.8978 18.5002 15.4994 18.5002Z" stroke="#D1D3D9" stroke-width="1.3" stroke-linecap="round" stroke-linejoin="round"/>
</g>
<defs>
<clipPath id="clip0_2157_2107">
<rect x="6.7998" y="6.6001" width="17.4" height="16.8" rx="2" fill="white"/>
</clipPath>
</defs>
</svg>
