<svg width="218" height="148" viewBox="0 0 218 148" fill="none" xmlns="http://www.w3.org/2000/svg">
<path d="M50.8664 80.8158C58.0241 80.8158 62.4931 75.1478 60.7082 70.0793M60.7082 70.0793C60.7082 68.3307 61.4349 68.0174 60.7082 66.1553C59.9816 64.2932 55.0175 68.5033 56.8069 69.3344C58.9234 70.3064 58.3784 70.0793 60.7082 70.0793ZM60.7082 70.0793C66.0719 71.8687 70.8452 70.0793 73.2296 62.9216M172.242 65.9009C179.028 69.7795 179.695 61.1322 176.716 56.9539C173.283 52.1533 165.975 56.2045 162.7 51.2904C159.567 46.5898 160.13 37.9697 152.722 35.2265C152.2 35.0312 151.946 34.409 152.241 33.9412C161.638 18.9992 179.128 17.1371 194.61 24.1539C201.468 27.2604 203.226 21.9104 201.468 19.0809C194.633 8.09007 162.928 5.08803 142.64 23.945C142.495 24.0748 142.312 24.1544 142.118 24.1721C117.547 25.9706 103.218 29.2815 83.3711 43.238M172.242 65.9009C162.896 60.5645 156.401 65.0653 151.664 62.9216C147.095 60.8551 145.547 57.4035 141.128 55.3824C140.98 55.3169 140.816 55.2965 140.657 55.324C140.498 55.3515 140.35 55.4256 140.233 55.5369C139.061 56.6117 137.871 57.6442 136.663 58.6343M172.242 65.9009C172.242 65.9009 170.589 69.4434 168.609 69.4434C162.351 69.4434 152 69.8658 149.021 68.4988C143.199 65.8374 136.663 58.6343 136.663 58.6343M83.3711 43.238C87.8765 48.3883 89.8657 68.6123 76.2952 81.9058C83.1531 86.9743 95.8971 93.3962 103.3 95.8396M83.3711 43.238C82.5152 42.2584 81.6749 41.2651 80.8505 40.2587M136.663 58.6343C124.401 68.6577 110.167 74.3439 97.0007 78.118C96.8742 78.1525 96.7578 78.217 96.6614 78.306C96.565 78.3949 96.4915 78.5057 96.4469 78.6291C96.4024 78.7525 96.3882 78.8847 96.4055 79.0147C96.4229 79.1448 96.4712 79.2687 96.5465 79.3761C100.416 84.6126 105.734 86.0659 110.807 89.1679C116.176 92.447 113.192 101.689 105.439 96.9205C104.644 96.43 104.013 96.4482 103.3 95.8396M103.3 95.8396C105.439 99.8998 103.3 101.694 100.666 101.694C92.6725 101.694 69.0831 87.1514 69.0831 87.1514M76.2952 81.9012C74.2379 83.9177 71.7854 85.6708 69.0831 87.1514M69.0831 87.1514C57.7471 93.3462 42.0601 94.6088 33.2084 89.1679M80.8505 40.2587C76.4496 34.8904 62.8837 13.2449 58.3193 14.6119C53.7549 15.9789 55.6352 28.9227 53.546 40.2587C46.9879 40.2587 38.94 43.7149 34.1622 48.6063M80.8505 40.2587C80.8505 40.2587 66.0719 53.3796 53.5506 40.2587M24.3249 62.9216C22.8307 67.6904 22.8035 76.5875 27.8992 84.0949C29.3616 86.2521 31.1692 87.9099 33.2084 89.1679M24.3249 62.9216C18.9612 56.6586 13.6656 43.0382 16.8675 40.2587C20.0694 37.4792 27.9038 45.3272 34.1622 48.6063M24.3249 62.9216C24.7761 61.4895 25.4059 60.0604 26.2143 58.6343M33.2084 89.1679C39.2352 76.3422 36 68.0001 26.2143 58.6343M34.1622 48.6063C30.8286 52.0261 28.0764 55.3279 26.2143 58.6343" stroke="#D1D3D9" stroke-width="5" stroke-linecap="round" stroke-linejoin="round"/>
<path d="M62.9795 60.8096C64.8607 60.8096 66.3857 59.2845 66.3857 57.4033C66.3857 55.5221 64.8607 53.9971 62.9795 53.9971C61.0983 53.9971 59.5732 55.5221 59.5732 57.4033C59.5732 59.2845 61.0983 60.8096 62.9795 60.8096Z" fill="#D1D3D9"/>
<path d="M43.8589 71.8186C45.7401 71.8186 47.2651 70.2936 47.2651 68.4124C47.2651 66.5311 45.7401 65.0061 43.8589 65.0061C41.9777 65.0061 40.4526 66.5311 40.4526 68.4124C40.4526 70.2936 41.9777 71.8186 43.8589 71.8186Z" fill="#D1D3D9"/>
<path d="M25.5625 138.078V136.445H27.0625C27.6927 136.445 28.1927 136.289 28.5625 135.977C28.9375 135.659 29.125 135.245 29.125 134.734V134.719C29.125 134.401 29.0443 134.125 28.8828 133.891C28.7266 133.656 28.5 133.477 28.2031 133.352C27.9062 133.227 27.5469 133.164 27.125 133.164C26.7188 133.164 26.362 133.227 26.0547 133.352C25.7474 133.477 25.5026 133.656 25.3203 133.891C25.138 134.125 25.0312 134.409 25 134.742L24.9922 134.789H23.0938L23.1016 134.688C23.1484 134.021 23.3438 133.445 23.6875 132.961C24.0365 132.477 24.5078 132.104 25.1016 131.844C25.6953 131.578 26.3906 131.445 27.1875 131.445C27.9531 131.445 28.6276 131.573 29.2109 131.828C29.7943 132.083 30.2526 132.44 30.5859 132.898C30.9193 133.357 31.0859 133.888 31.0859 134.492V134.508C31.0859 135.128 30.888 135.674 30.4922 136.148C30.1016 136.622 29.5938 136.927 28.9688 137.062V137.195C29.7031 137.268 30.3047 137.544 30.7734 138.023C31.2422 138.503 31.4766 139.13 31.4766 139.906V139.922C31.4766 140.573 31.2865 141.151 30.9062 141.656C30.526 142.161 30.0078 142.56 29.3516 142.852C28.6953 143.138 27.9583 143.281 27.1406 143.281C26.3073 143.281 25.5729 143.143 24.9375 142.867C24.3021 142.586 23.7995 142.198 23.4297 141.703C23.0599 141.203 22.8568 140.622 22.8203 139.961L22.8125 139.891H24.7656L24.7734 139.945C24.8047 140.279 24.9219 140.568 25.125 140.812C25.3281 141.052 25.6016 141.237 25.9453 141.367C26.2943 141.497 26.6953 141.562 27.1484 141.562C27.6068 141.562 28.0052 141.49 28.3438 141.344C28.6875 141.198 28.9531 140.995 29.1406 140.734C29.3333 140.469 29.4297 140.159 29.4297 139.805V139.789C29.4297 139.263 29.2266 138.846 28.8203 138.539C28.4141 138.232 27.8411 138.078 27.1016 138.078H25.5625ZM34.3594 145.227H32.5781V141.477H33.25C33.5625 141.294 33.7943 140.971 33.9453 140.508C34.0964 140.039 34.1901 139.518 34.2266 138.945L34.5234 134.461H40.9453V141.477H42.2578V145.227H40.4844V143H34.3594V145.227ZM39 141.477V135.984H36.1875L35.9609 139.047C35.9297 139.516 35.862 139.951 35.7578 140.352C35.6536 140.747 35.5104 141.078 35.3281 141.344V141.477H39ZM47.5781 143.172C46.7292 143.172 46 142.992 45.3906 142.633C44.7865 142.273 44.3203 141.763 43.9922 141.102C43.6641 140.44 43.5 139.656 43.5 138.75V138.742C43.5 137.846 43.6615 137.065 43.9844 136.398C44.3125 135.732 44.776 135.216 45.375 134.852C45.974 134.482 46.6771 134.297 47.4844 134.297C48.2969 134.297 48.9948 134.477 49.5781 134.836C50.1667 135.19 50.6198 135.688 50.9375 136.328C51.2552 136.969 51.4141 137.719 51.4141 138.578V139.219H44.4766V137.914H50.4609L49.5391 139.133V138.359C49.5391 137.792 49.4531 137.32 49.2812 136.945C49.1094 136.57 48.8698 136.289 48.5625 136.102C48.2604 135.914 47.9089 135.82 47.5078 135.82C47.1068 135.82 46.75 135.919 46.4375 136.117C46.1302 136.31 45.8854 136.596 45.7031 136.977C45.526 137.352 45.4375 137.812 45.4375 138.359V139.141C45.4375 139.667 45.526 140.117 45.7031 140.492C45.8802 140.862 46.1302 141.148 46.4531 141.352C46.7812 141.549 47.1693 141.648 47.6172 141.648C47.9661 141.648 48.2656 141.599 48.5156 141.5C48.7708 141.396 48.9766 141.273 49.1328 141.133C49.2891 140.987 49.3984 140.849 49.4609 140.719L49.4844 140.664H51.3281L51.3125 140.734C51.2448 141.01 51.1198 141.292 50.9375 141.578C50.7604 141.859 50.5182 142.122 50.2109 142.367C49.9089 142.607 49.5391 142.802 49.1016 142.953C48.6641 143.099 48.1562 143.172 47.5781 143.172ZM57.1797 143.172C56.3203 143.172 55.5859 142.995 54.9766 142.641C54.3672 142.286 53.901 141.776 53.5781 141.109C53.2552 140.443 53.0938 139.646 53.0938 138.719V138.703C53.0938 137.781 53.2552 136.992 53.5781 136.336C53.901 135.68 54.3672 135.177 54.9766 134.828C55.5859 134.474 56.3177 134.297 57.1719 134.297C57.9062 134.297 58.5365 134.424 59.0625 134.68C59.5938 134.93 60.013 135.279 60.3203 135.727C60.6328 136.169 60.8255 136.688 60.8984 137.281V137.312H59.0625L59.0547 137.289C58.9661 136.872 58.763 136.531 58.4453 136.266C58.1328 136 57.7109 135.867 57.1797 135.867C56.737 135.867 56.3568 135.979 56.0391 136.203C55.7266 136.427 55.487 136.75 55.3203 137.172C55.1536 137.594 55.0703 138.104 55.0703 138.703V138.719C55.0703 139.323 55.1536 139.841 55.3203 140.273C55.4922 140.701 55.7344 141.029 56.0469 141.258C56.3594 141.482 56.737 141.594 57.1797 141.594C57.6849 141.594 58.0911 141.479 58.3984 141.25C58.7109 141.021 58.9271 140.682 59.0469 140.234L59.0625 140.203L60.8906 140.195L60.8828 140.266C60.7891 140.844 60.5859 141.352 60.2734 141.789C59.9661 142.227 59.5547 142.568 59.0391 142.812C58.5234 143.052 57.9036 143.172 57.1797 143.172ZM62.8984 143V134.461H64.8438V137.039H66.5234C67.5234 137.039 68.3177 137.31 68.9062 137.852C69.5 138.388 69.7969 139.109 69.7969 140.016V140.031C69.7969 140.938 69.5 141.659 68.9062 142.195C68.3177 142.732 67.5234 143 66.5234 143H62.8984ZM66.2734 138.539H64.8438V141.5H66.2734C66.7526 141.5 67.1328 141.365 67.4141 141.094C67.6953 140.818 67.8359 140.461 67.8359 140.023V140.008C67.8359 139.565 67.6953 139.211 67.4141 138.945C67.1328 138.674 66.7526 138.539 66.2734 138.539ZM76.0547 143V134.461H83.4688V143H81.5234V135.969H78V143H76.0547ZM89.6875 143.172C88.8385 143.172 88.1068 142.995 87.4922 142.641C86.8776 142.281 86.4036 141.771 86.0703 141.109C85.7422 140.448 85.5781 139.656 85.5781 138.734V138.719C85.5781 137.807 85.7448 137.021 86.0781 136.359C86.4115 135.693 86.8828 135.182 87.4922 134.828C88.1068 134.474 88.8385 134.297 89.6875 134.297C90.5365 134.297 91.2656 134.474 91.875 134.828C92.4896 135.182 92.9635 135.69 93.2969 136.352C93.6302 137.013 93.7969 137.802 93.7969 138.719V138.734C93.7969 139.656 93.6302 140.448 93.2969 141.109C92.9688 141.771 92.4974 142.281 91.8828 142.641C91.2734 142.995 90.5417 143.172 89.6875 143.172ZM89.6875 141.594C90.1354 141.594 90.5156 141.482 90.8281 141.258C91.1458 141.029 91.388 140.703 91.5547 140.281C91.7214 139.854 91.8047 139.341 91.8047 138.742V138.727C91.8047 138.122 91.7214 137.609 91.5547 137.188C91.388 136.76 91.1458 136.435 90.8281 136.211C90.5156 135.982 90.1354 135.867 89.6875 135.867C89.2396 135.867 88.8568 135.982 88.5391 136.211C88.2214 136.435 87.9792 136.76 87.8125 137.188C87.6458 137.609 87.5625 138.122 87.5625 138.727V138.742C87.5625 139.341 87.6458 139.854 87.8125 140.281C87.9792 140.708 88.2188 141.034 88.5312 141.258C88.849 141.482 89.2344 141.594 89.6875 141.594ZM98.2812 139.312H97.8438V143H95.8984V134.461H97.8438V137.891H98.2578L101.078 134.461H103.312L99.7266 138.562V138.25L103.477 143H101.125L98.2812 139.312ZM107.266 143.141C106.729 143.141 106.247 143.036 105.82 142.828C105.398 142.62 105.065 142.326 104.82 141.945C104.581 141.56 104.461 141.107 104.461 140.586V140.57C104.461 139.81 104.74 139.211 105.297 138.773C105.859 138.336 106.661 138.089 107.703 138.031L110.859 137.836V139.117L107.977 139.305C107.43 139.336 107.026 139.451 106.766 139.648C106.505 139.846 106.375 140.122 106.375 140.477V140.492C106.375 140.857 106.513 141.141 106.789 141.344C107.07 141.547 107.427 141.648 107.859 141.648C108.25 141.648 108.599 141.57 108.906 141.414C109.214 141.258 109.456 141.047 109.633 140.781C109.81 140.51 109.898 140.206 109.898 139.867V137.164C109.898 136.737 109.763 136.411 109.492 136.188C109.221 135.958 108.82 135.844 108.289 135.844C107.846 135.844 107.484 135.922 107.203 136.078C106.922 136.229 106.732 136.445 106.633 136.727L106.625 136.758H104.789L104.797 136.688C104.859 136.208 105.047 135.789 105.359 135.43C105.672 135.07 106.086 134.792 106.602 134.594C107.117 134.396 107.711 134.297 108.383 134.297C109.122 134.297 109.747 134.411 110.258 134.641C110.768 134.865 111.156 135.193 111.422 135.625C111.688 136.052 111.82 136.565 111.82 137.164V143H109.898V141.828H109.766C109.609 142.099 109.406 142.333 109.156 142.531C108.911 142.729 108.63 142.88 108.312 142.984C107.995 143.089 107.646 143.141 107.266 143.141ZM125.648 143H123.711V139.586H123.57C123.346 139.758 123.068 139.893 122.734 139.992C122.401 140.091 122.016 140.141 121.578 140.141C120.562 140.141 119.779 139.857 119.227 139.289C118.674 138.721 118.398 137.964 118.398 137.016V134.461H120.344V136.852C120.344 137.378 120.477 137.784 120.742 138.07C121.013 138.357 121.414 138.5 121.945 138.5C122.372 138.5 122.732 138.448 123.023 138.344C123.32 138.24 123.549 138.109 123.711 137.953V134.461H125.648V143ZM134.703 134.461V135.969H132.07V143H130.125V135.969H127.5V134.461H134.703ZM139.969 143.172C139.12 143.172 138.388 142.995 137.773 142.641C137.159 142.281 136.685 141.771 136.352 141.109C136.023 140.448 135.859 139.656 135.859 138.734V138.719C135.859 137.807 136.026 137.021 136.359 136.359C136.693 135.693 137.164 135.182 137.773 134.828C138.388 134.474 139.12 134.297 139.969 134.297C140.818 134.297 141.547 134.474 142.156 134.828C142.771 135.182 143.245 135.69 143.578 136.352C143.911 137.013 144.078 137.802 144.078 138.719V138.734C144.078 139.656 143.911 140.448 143.578 141.109C143.25 141.771 142.779 142.281 142.164 142.641C141.555 142.995 140.823 143.172 139.969 143.172ZM139.969 141.594C140.417 141.594 140.797 141.482 141.109 141.258C141.427 141.029 141.669 140.703 141.836 140.281C142.003 139.854 142.086 139.341 142.086 138.742V138.727C142.086 138.122 142.003 137.609 141.836 137.188C141.669 136.76 141.427 136.435 141.109 136.211C140.797 135.982 140.417 135.867 139.969 135.867C139.521 135.867 139.138 135.982 138.82 136.211C138.503 136.435 138.26 136.76 138.094 137.188C137.927 137.609 137.844 138.122 137.844 138.727V138.742C137.844 139.341 137.927 139.854 138.094 140.281C138.26 140.708 138.5 141.034 138.812 141.258C139.13 141.482 139.516 141.594 139.969 141.594ZM150.445 143V134.461H157.859V143H155.914V135.969H152.391V143H150.445ZM161.305 146C161.185 146 161.06 145.997 160.93 145.992C160.805 145.987 160.682 145.979 160.562 145.969V144.477C160.641 144.487 160.732 144.492 160.836 144.492C160.94 144.497 161.042 144.5 161.141 144.5C161.542 144.5 161.862 144.411 162.102 144.234C162.346 144.062 162.521 143.784 162.625 143.398L162.727 143.008L159.672 134.461H161.797L164.047 142.023L163.516 141.133H164.188L163.672 142.023L165.922 134.461H167.969L164.906 143.188C164.656 143.896 164.372 144.456 164.055 144.867C163.742 145.279 163.362 145.57 162.914 145.742C162.471 145.914 161.935 146 161.305 146ZM173.102 143.172C172.242 143.172 171.508 142.995 170.898 142.641C170.289 142.286 169.823 141.776 169.5 141.109C169.177 140.443 169.016 139.646 169.016 138.719V138.703C169.016 137.781 169.177 136.992 169.5 136.336C169.823 135.68 170.289 135.177 170.898 134.828C171.508 134.474 172.24 134.297 173.094 134.297C173.828 134.297 174.458 134.424 174.984 134.68C175.516 134.93 175.935 135.279 176.242 135.727C176.555 136.169 176.747 136.688 176.82 137.281V137.312H174.984L174.977 137.289C174.888 136.872 174.685 136.531 174.367 136.266C174.055 136 173.633 135.867 173.102 135.867C172.659 135.867 172.279 135.979 171.961 136.203C171.648 136.427 171.409 136.75 171.242 137.172C171.076 137.594 170.992 138.104 170.992 138.703V138.719C170.992 139.323 171.076 139.841 171.242 140.273C171.414 140.701 171.656 141.029 171.969 141.258C172.281 141.482 172.659 141.594 173.102 141.594C173.607 141.594 174.013 141.479 174.32 141.25C174.633 141.021 174.849 140.682 174.969 140.234L174.984 140.203L176.812 140.195L176.805 140.266C176.711 140.844 176.508 141.352 176.195 141.789C175.888 142.227 175.477 142.568 174.961 142.812C174.445 143.052 173.826 143.172 173.102 143.172ZM185 134.461V135.969H182.367V143H180.422V135.969H177.797V134.461H185ZM190.266 143.172C189.417 143.172 188.685 142.995 188.07 142.641C187.456 142.281 186.982 141.771 186.648 141.109C186.32 140.448 186.156 139.656 186.156 138.734V138.719C186.156 137.807 186.323 137.021 186.656 136.359C186.99 135.693 187.461 135.182 188.07 134.828C188.685 134.474 189.417 134.297 190.266 134.297C191.115 134.297 191.844 134.474 192.453 134.828C193.068 135.182 193.542 135.69 193.875 136.352C194.208 137.013 194.375 137.802 194.375 138.719V138.734C194.375 139.656 194.208 140.448 193.875 141.109C193.547 141.771 193.076 142.281 192.461 142.641C191.852 142.995 191.12 143.172 190.266 143.172ZM190.266 141.594C190.714 141.594 191.094 141.482 191.406 141.258C191.724 141.029 191.966 140.703 192.133 140.281C192.299 139.854 192.383 139.341 192.383 138.742V138.727C192.383 138.122 192.299 137.609 192.133 137.188C191.966 136.76 191.724 136.435 191.406 136.211C191.094 135.982 190.714 135.867 190.266 135.867C189.818 135.867 189.435 135.982 189.117 136.211C188.799 136.435 188.557 136.76 188.391 137.188C188.224 137.609 188.141 138.122 188.141 138.727V138.742C188.141 139.341 188.224 139.854 188.391 140.281C188.557 140.708 188.797 141.034 189.109 141.258C189.427 141.482 189.812 141.594 190.266 141.594Z" fill="#D1D3D9"/>
</svg>
