<svg width="9" height="9" viewBox="0 0 9 9" fill="none" xmlns="http://www.w3.org/2000/svg">
<path d="M1.29167 7.70833H1.94479L6.425 3.22813L5.77188 2.575L1.29167 7.05521V7.70833ZM0.375 8.625V6.67708L6.425 0.638542C6.51667 0.554514 6.61788 0.489583 6.72865 0.44375C6.83941 0.397917 6.9559 0.375 7.07812 0.375C7.20035 0.375 7.31875 0.397917 7.43333 0.44375C7.54792 0.489583 7.64722 0.558333 7.73125 0.65L8.36146 1.29167C8.45313 1.37569 8.51997 1.475 8.56198 1.58958C8.60399 1.70417 8.625 1.81875 8.625 1.93333C8.625 2.05556 8.60399 2.17205 8.56198 2.28281C8.51997 2.39358 8.45313 2.49479 8.36146 2.58646L2.32292 8.625H0.375ZM6.09271 2.90729L5.77188 2.575L6.425 3.22813L6.09271 2.90729Z" fill="white"/>
</svg>
