<svg width="20" height="20" viewBox="0 0 20 20" fill="none" xmlns="http://www.w3.org/2000/svg">
<rect width="20" height="20" rx="5" fill="white"/>
<path d="M9.81473 4.37054H5.29216C4.94946 4.37054 4.62079 4.50668 4.37847 4.74901C4.13614 4.99134 4 5.32 4 5.66271V14.7078C4 15.0505 4.13614 15.3792 4.37847 15.6215C4.62079 15.8639 4.94946 16 5.29216 16H14.3373C14.68 16 15.0087 15.8639 15.251 15.6215C15.4933 15.3792 15.6295 15.0505 15.6295 14.7078V10.1853M14.6603 3.40142C14.9174 3.1444 15.266 3 15.6295 3C15.9929 3 16.3416 3.1444 16.5986 3.40142C16.8556 3.65845 17 4.00705 17 4.37054C17 4.73404 16.8556 5.08264 16.5986 5.33967L10.4608 11.4774L7.87649 12.1235L8.52257 9.53919L14.6603 3.40142Z" stroke="#1B1B1B" stroke-width="1.5" stroke-linecap="round" stroke-linejoin="round"/>
</svg>
