<svg width="17" height="16" viewBox="0 0 17 16" fill="none" xmlns="http://www.w3.org/2000/svg">
<path fill-rule="evenodd" clip-rule="evenodd" d="M5.95 6.67616C5.30927 6.67605 4.68567 6.46128 4.17189 6.06377C3.65811 5.66626 3.28158 5.10723 3.09825 4.46976H0.85C0.624567 4.46976 0.408365 4.37678 0.248959 4.21127C0.0895519 4.04576 0 3.82128 0 3.58721C0 3.35314 0.0895519 3.12866 0.248959 2.96314C0.408365 2.79763 0.624567 2.70465 0.85 2.70465H3.09825C3.28188 2.06751 3.65854 1.50887 4.17229 1.11169C4.68605 0.714518 5.30948 0.5 5.95 0.5C6.59052 0.5 7.21395 0.714518 7.72771 1.11169C8.24146 1.50887 8.61812 2.06751 8.80175 2.70465H16.15C16.3754 2.70465 16.5916 2.79763 16.751 2.96314C16.9104 3.12866 17 3.35314 17 3.58721C17 3.82128 16.9104 4.04576 16.751 4.21127C16.5916 4.37678 16.3754 4.46976 16.15 4.46976H8.80175C8.61842 5.10723 8.24189 5.66626 7.72811 6.06377C7.21433 6.46128 6.59073 6.67605 5.95 6.67616ZM16.15 11.5302C16.3754 11.5302 16.5916 11.6232 16.751 11.7887C16.9104 11.9542 17 12.1787 17 12.4128C17 12.6469 16.9104 12.8713 16.751 13.0369C16.5916 13.2024 16.3754 13.2954 16.15 13.2954H14.3268C14.1431 13.9325 13.7665 14.4911 13.2527 14.8883C12.739 15.2855 12.1155 15.5 11.475 15.5C10.8345 15.5 10.211 15.2855 9.69729 14.8883C9.18354 14.4911 8.80688 13.9325 8.62325 13.2954H0.85C0.624567 13.2954 0.408365 13.2024 0.248959 13.0369C0.0895519 12.8713 0 12.6469 0 12.4128C0 12.1787 0.0895519 11.9542 0.248959 11.7887C0.408365 11.6232 0.624567 11.5302 0.85 11.5302H8.62325C8.80688 10.8931 9.18354 10.3345 9.69729 9.93728C10.211 9.54011 10.8345 9.32559 11.475 9.32559C12.1155 9.32559 12.739 9.54011 13.2527 9.93728C13.7665 10.3345 14.1431 10.8931 14.3268 11.5302H16.15Z" fill="#828282"/>
</svg>
