<svg width="12" height="18" viewBox="0 0 12 18" fill="none" xmlns="http://www.w3.org/2000/svg">
<path d="M6 12.6777C2.69419 12.6777 0 9.98354 0 6.67773C0 3.37193 2.69419 0.677734 6 0.677734C9.30581 0.677734 12 3.37193 12 6.67773C12 9.98354 9.30581 12.6777 6 12.6777ZM6 1.83902C3.32903 1.83902 1.16129 4.00677 1.16129 6.67773C1.16129 9.3487 3.32903 11.5164 6 11.5164C8.67097 11.5164 10.8387 9.3487 10.8387 6.67773C10.8387 4.00677 8.67097 1.83902 6 1.83902Z" fill="#6C54F6"/>
<path d="M6.00057 17.3221C5.68315 17.3221 5.41992 17.0589 5.41992 16.7414V12.0963C5.41992 11.7789 5.68315 11.5156 6.00057 11.5156C6.31799 11.5156 6.58121 11.7789 6.58121 12.0963V16.7414C6.58121 17.0589 6.31799 17.3221 6.00057 17.3221Z" fill="#6C54F6"/>
<path d="M8.32151 15.0011H3.67635C3.35893 15.0011 3.0957 14.7379 3.0957 14.4205C3.0957 14.1031 3.35893 13.8398 3.67635 13.8398H8.32151C8.63893 13.8398 8.90216 14.1031 8.90216 14.4205C8.90216 14.7379 8.63893 15.0011 8.32151 15.0011Z" fill="#6C54F6"/>
</svg>
