<svg width="20" height="20" viewBox="0 0 20 20" fill="none" xmlns="http://www.w3.org/2000/svg">
<path d="M7.80176 16.5918C8.96726 16.5918 10.085 16.1288 10.9092 15.3047C11.7333 14.4805 12.1963 13.3628 12.1963 12.1973C12.1963 11.0318 11.7333 9.914 10.9092 9.08986C10.085 8.26573 8.96726 7.80273 7.80176 7.80273C6.63626 7.80273 5.51849 8.26573 4.69436 9.08986C3.87022 9.914 3.40723 11.0318 3.40723 12.1973C3.40723 13.3628 3.87022 14.4805 4.69436 15.3047C5.51849 16.1288 6.63626 16.5918 7.80176 16.5918ZM7.80176 17.6904C6.34488 17.6904 4.94767 17.1117 3.9175 16.0815C2.88734 15.0514 2.30859 13.6541 2.30859 12.1973C2.30859 10.7404 2.88734 9.34318 3.9175 8.31301C4.94767 7.28284 6.34488 6.7041 7.80176 6.7041C9.25864 6.7041 10.6558 7.28284 11.686 8.31301C12.7162 9.34318 13.2949 10.7404 13.2949 12.1973C13.2949 13.6541 12.7162 15.0514 11.686 16.0815C10.6558 17.1117 9.25864 17.6904 7.80176 17.6904ZM12.7456 2.30957H17.1401C17.5063 2.30957 17.6895 2.49268 17.6895 2.85889C17.6895 3.2251 17.5063 3.4082 17.1401 3.4082H12.7456C12.3794 3.4082 12.1963 3.2251 12.1963 2.85889C12.1963 2.49268 12.3794 2.30957 12.7456 2.30957Z" fill="#6C54F6"/>
<path d="M17.1411 2.30957C17.5073 2.30957 17.6904 2.49268 17.6904 2.85889V7.25342C17.6904 7.61963 17.5073 7.80273 17.1411 7.80273C16.7749 7.80273 16.5918 7.61963 16.5918 7.25342V2.85889C16.5918 2.49268 16.7749 2.30957 17.1411 2.30957Z" fill="#6C54F6"/>
<path d="M11.8128 8.96313L11.0371 8.18639L16.7522 2.47021L17.53 3.24803L11.8128 8.96313Z" fill="#6C54F6"/>
</svg>
