<svg width="18" height="18" viewBox="0 0 18 18" fill="none" xmlns="http://www.w3.org/2000/svg">
<path d="M17 14.0002V8.4522C17 7.9179 16.9995 7.6506 16.9346 7.4019C16.877 7.1816 16.7825 6.97307 16.6546 6.78464C16.5102 6.57201 16.3096 6.39569 15.9074 6.04383L11.1074 1.84383C10.3608 1.19054 9.9875 0.864057 9.5674 0.739817C9.1972 0.630347 8.8026 0.630347 8.4324 0.739817C8.0126 0.863967 7.6398 1.19014 6.89436 1.84244L2.09277 6.04383C1.69064 6.39569 1.49004 6.57201 1.3457 6.78464C1.21779 6.97307 1.12255 7.1816 1.06497 7.4019C1 7.6506 1 7.9179 1 8.4522V14.0002C1 14.932 1 15.3978 1.15224 15.7654C1.35523 16.2554 1.74432 16.6452 2.23438 16.8482C2.60192 17.0005 3.06786 17.0005 3.99974 17.0005C4.93163 17.0005 5.39808 17.0005 5.76562 16.8482C6.25568 16.6452 6.64467 16.2555 6.84766 15.7654C6.9999 15.3979 7 14.932 7 14.0001V13.0001C7 11.8955 7.8954 11.0001 9 11.0001C10.1046 11.0001 11 11.8955 11 13.0001V14.0001C11 14.932 11 15.3979 11.1522 15.7654C11.3552 16.2555 11.7443 16.6452 12.2344 16.8482C12.6019 17.0005 13.0679 17.0005 13.9997 17.0005C14.9316 17.0005 15.3981 17.0005 15.7656 16.8482C16.2557 16.6452 16.6447 16.2554 16.8477 15.7654C16.9999 15.3978 17 14.932 17 14.0002Z" stroke="#1B1B1B" stroke-linecap="round" stroke-linejoin="round"/>
</svg>
