<svg width="27" height="27" viewBox="0 0 27 27" fill="none" xmlns="http://www.w3.org/2000/svg">
<path d="M5.625 23.625C5.00625 23.625 4.47188 23.4094 4.02188 22.9781C3.59063 22.5281 3.375 21.9938 3.375 21.375V5.625C3.375 5.00625 3.59063 4.48125 4.02188 4.05C4.47188 3.6 5.00625 3.375 5.625 3.375H21.375C21.9937 3.375 22.5188 3.6 22.95 4.05C23.4 4.48125 23.625 5.00625 23.625 5.625V21.375C23.625 21.9938 23.4 22.5281 22.95 22.9781C22.5188 23.4094 21.9937 23.625 21.375 23.625H5.625ZM5.625 21.375H21.375V5.625H5.625V21.375ZM6.75 19.125H20.25L16.0313 13.5L12.6563 18L10.125 14.625L6.75 19.125ZM5.625 21.375V5.625V21.375Z" fill="#828282"/>
</svg>
