<svg width="16" height="15" viewBox="0 0 16 15" fill="none" xmlns="http://www.w3.org/2000/svg">
<g clip-path="url(#clip0_724_13273)">
<path d="M7.95538 2.5352L8.31728 2.91482L8.67917 2.5352C10.2516 0.885752 11.9159 0.728372 13.1605 1.30272C14.4379 1.89223 15.3728 3.29381 15.3728 4.96417C15.3728 6.66445 14.6827 7.97336 13.7011 9.08933C12.8936 10.0073 11.9155 10.7686 10.9674 11.5065C10.7429 11.6813 10.52 11.8547 10.3015 12.0286C9.90464 12.3445 9.54652 12.6251 9.20017 12.8294C8.85353 13.0339 8.56691 13.132 8.31727 13.132C8.06764 13.132 7.78101 13.0339 7.43439 12.8294C7.08804 12.6251 6.72992 12.3445 6.33306 12.0286C6.11456 11.8547 5.8917 11.6812 5.66715 11.5065C4.71908 10.7686 3.74096 10.0073 2.93348 9.08933C1.95187 7.97336 1.26172 6.66445 1.26172 4.96417C1.26172 3.29381 2.19668 1.89223 3.47406 1.30272C4.71859 0.728373 6.3829 0.885751 7.95538 2.5352Z" stroke="#6C54F6"/>
</g>
<defs>
<clipPath id="clip0_724_13273">
<rect width="16" height="14" fill="white" transform="translate(0 0.5)"/>
</clipPath>
</defs>
</svg>
