<svg width="36" height="35" viewBox="0 0 36 35" fill="none" xmlns="http://www.w3.org/2000/svg">
<path d="M9.65365 14.4377C5.96784 11.9454 9.00553 8.05728 11.4375 12.0279" stroke="#585858" stroke-width="2" stroke-linecap="round" stroke-linejoin="round"/>
<path d="M23.1621 11.7076C24.9739 8.79643 29.2679 9.17828 26.5967 13.1253" stroke="#585858" stroke-width="2" stroke-linecap="round" stroke-linejoin="round"/>
<path d="M14.6013 13.9125C14.532 13.4838 14.7493 13.0694 14.8504 12.6875" stroke="#585858" stroke-width="2" stroke-linecap="round" stroke-linejoin="round"/>
<path d="M17.4746 14.4375C17.5104 13.7039 17.5576 12.9685 17.6496 12.25" stroke="#585858" stroke-width="2" stroke-linecap="round" stroke-linejoin="round"/>
<path d="M20.4512 13.9124C20.4512 13.5327 20.4512 13.1537 20.4512 12.7749" stroke="#585858" stroke-width="2" stroke-linecap="round" stroke-linejoin="round"/>
<path d="M13.8887 19.5126C14.5426 19.3302 15.2349 19.2521 15.9012 19.1626" stroke="#585858" stroke-width="2" stroke-linecap="round" stroke-linejoin="round"/>
<path d="M20.1875 19.1627C20.8783 19.025 21.5246 19.0692 22.2 19.1627" stroke="#585858" stroke-width="2" stroke-linecap="round" stroke-linejoin="round"/>
<path d="M16.9512 22.4004C19.8824 20.8899 19.5182 23.1527 17.2556 22.7994" stroke="#585858" stroke-width="2" stroke-linecap="round" stroke-linejoin="round"/>
<path d="M18.0863 23.3628C17.9161 25.2271 16.4215 25.3906 15.1113 24.827" stroke="#585858" stroke-width="2" stroke-linecap="round" stroke-linejoin="round"/>
<path d="M18.0036 23.3623C17.9006 25.8385 20.0633 25.4628 21.2375 24.2729" stroke="#585858" stroke-width="2" stroke-linecap="round" stroke-linejoin="round"/>
<path d="M10.2129 21.2624C8.92895 20.8449 7.57141 20.8218 6.27539 20.6499" stroke="#585858" stroke-width="2" stroke-linecap="round" stroke-linejoin="round"/>
<path d="M10.6512 23.3628C9.23958 23.696 7.82871 23.9536 6.45117 24.4128" stroke="#585858" stroke-width="2" stroke-linecap="round" stroke-linejoin="round"/>
<path d="M26.1387 20.3878C27.145 20.1218 28.1239 19.742 29.1137 19.4253" stroke="#585858" stroke-width="2" stroke-linecap="round" stroke-linejoin="round"/>
<path d="M26.4863 22.8375C27.5238 22.706 28.6859 22.7524 29.6363 22.7875" stroke="#585858" stroke-width="2" stroke-linecap="round" stroke-linejoin="round"/>
</svg>
