<svg width="22" height="22" viewBox="0 0 22 22" fill="none" xmlns="http://www.w3.org/2000/svg">
  <rect width="22" height="22" rx="11" fill="#585858"/>
  <g transform="translate(9, 3)">
    <path d="M1.20703 10.3125L1.05078 0.898438H2.95508L2.79883 10.3125H1.20703ZM2.00781 15.1562C1.63021 15.1562 1.31771 15.0358 1.07031 14.7949C0.829427 14.5475 0.708984 14.235 0.708984 13.8574C0.708984 13.4733 0.829427 13.1608 1.07031 12.9199C1.31771 12.6725 1.63021 12.5488 2.00781 12.5488C2.38542 12.5488 2.69466 12.6725 2.93555 12.9199C3.17643 13.1608 3.29688 13.4733 3.29688 13.8574C3.29688 14.235 3.17643 14.5475 2.93555 14.7949C2.69466 15.0358 2.38542 15.1562 2.00781 15.1562Z" fill="#F5F5F5"/>
  </g>
</svg>
