<svg width="20" height="20" viewBox="0 0 20 20" fill="none" xmlns="http://www.w3.org/2000/svg">
<g clip-path="url(#clip0_1481_19216)">
<path d="M9.99963 19.0445C10.3496 19.0364 10.6854 18.9049 10.9477 18.6731C11.3582 18.3104 10.9413 17.7778 10.3936 17.7778H9.57781C9.01552 17.7778 8.58875 18.3268 9.01702 18.6911C9.2909 18.9241 9.64009 19.0497 9.99963 19.0445Z" fill="#1B1B1B"/>
<path d="M18.3339 15.9075C18.3339 15.7473 18.2651 15.5949 18.145 15.4889C17.6093 15.0113 17.1402 14.4638 16.7505 13.8611C16.3247 13.0294 16.0697 12.1208 16.0005 11.1889V8.44447C15.9984 8.15896 15.9763 7.874 15.9344 7.5917C15.9204 7.49746 15.8829 7.39298 15.8634 7.29973C15.6749 6.39783 14.9192 4.7927 14.2401 4.1701C14.1787 4.11384 14.1199 4.0592 14.0649 4.00658C14.003 3.94728 13.9367 3.89307 13.8648 3.84623L12.5839 3.01114C12.2135 2.82909 11.8256 2.68677 11.4267 2.58613C11.0386 2.4882 10.7394 2.15588 10.7394 1.75558C10.7394 1.55888 10.6613 1.37023 10.5222 1.23115C10.3831 1.09206 10.1945 1.01392 9.99776 1.01392C9.80106 1.01392 9.61242 1.09206 9.47333 1.23115C9.33424 1.37023 9.2561 1.55888 9.2561 1.75558C9.2561 2.173 8.94658 2.52054 8.54333 2.62838C7.3888 2.93714 6.34674 3.58523 5.55678 4.49666C4.60714 5.59232 4.08595 6.99455 4.08943 8.44447V11.1889C4.0203 12.1208 3.76528 13.0294 3.33943 13.8611C2.95659 14.4624 2.4951 15.0099 1.96721 15.4889C1.84711 15.5949 1.77832 15.7473 1.77832 15.9075V16.1427C1.77832 16.7389 2.26164 17.2222 2.85784 17.2222H17.2544C17.8506 17.2222 18.3339 16.7389 18.3339 16.1427V15.9075Z" fill="#1B1B1B"/>
</g>
<defs>
<clipPath id="clip0_1481_19216">
<rect width="20" height="20" fill="white"/>
</clipPath>
</defs>
</svg>
