<svg width="20" height="20" viewBox="0 0 20 20" fill="none" xmlns="http://www.w3.org/2000/svg">
<g clip-path="url(#clip0_1482_13524)">
<g clip-path="url(#clip1_1482_13524)">
<path d="M9.99963 19.0445C10.3496 19.0364 10.6854 18.9049 10.9477 18.6731C11.3582 18.3104 10.9413 17.7778 10.3936 17.7778H9.57781C9.01552 17.7778 8.58875 18.3268 9.01702 18.6911C9.2909 18.9241 9.64009 19.0497 9.99963 19.0445Z" fill="#1B1B1B"/>
<path d="M18.25 15.8799C18.25 15.7197 18.1812 15.5673 18.0611 15.4613C17.5254 14.9837 17.0564 14.4362 16.6667 13.8336C16.2408 13.0018 15.9858 12.0932 15.9167 11.1613V8.41688C15.9122 7.81399 15.4269 7.36449 14.8821 7.10625C14.3249 6.84217 13.8295 6.45586 13.435 5.97121C12.8286 5.22607 12.4983 4.29427 12.5 3.33355C12.5 3.11929 12.3791 2.9215 12.1815 2.83858C11.9092 2.72429 11.6289 2.6307 11.3429 2.55854C10.9547 2.46062 10.6556 2.12829 10.6556 1.72799C10.6556 1.53129 10.5774 1.34265 10.4383 1.20356C10.2993 1.06447 10.1106 0.986328 9.9139 0.986328C9.7172 0.986328 9.52855 1.06447 9.38947 1.20356C9.25038 1.34265 9.17224 1.53129 9.17224 1.72799C9.17224 2.14541 8.86271 2.49295 8.45947 2.60079C7.30494 2.90955 6.26287 3.55764 5.47291 4.46907C4.52327 5.56473 4.00208 6.96696 4.00557 8.41688V11.1613C3.93643 12.0932 3.68142 13.0018 3.25557 13.8336C2.87273 14.4349 2.41123 14.9823 1.88335 15.4613C1.76325 15.5673 1.69446 15.7197 1.69446 15.8799V16.1151C1.69446 16.7113 2.17777 17.1947 2.77397 17.1947H17.1705C17.7667 17.1947 18.25 16.7113 18.25 16.1151V15.8799Z" fill="#1B1B1B"/>
<path d="M16.6667 6.11122C18.2008 6.11122 19.4445 4.86757 19.4445 3.33344C19.4445 1.79932 18.2008 0.555664 16.6667 0.555664C15.1326 0.555664 13.8889 1.79932 13.8889 3.33344C13.8889 4.86757 15.1326 6.11122 16.6667 6.11122Z" fill="#6C54F6"/>
</g>
</g>
<defs>
<clipPath id="clip0_1482_13524">
<rect width="20" height="20" fill="white"/>
</clipPath>
<clipPath id="clip1_1482_13524">
<rect width="20" height="20" fill="white"/>
</clipPath>
</defs>
</svg>
