<svg width="30" height="30" viewBox="0 0 30 30" fill="none" xmlns="http://www.w3.org/2000/svg">
<rect width="30" height="30" rx="8" fill="#6C54F6"/>
<path d="M21.5833 17.9849V20.1099C21.5841 20.3072 21.5437 20.5024 21.4647 20.6832C21.3857 20.8639 21.2697 21.0262 21.1244 21.1596C20.979 21.2929 20.8074 21.3945 20.6205 21.4577C20.4336 21.5209 20.2356 21.5443 20.0392 21.5266C17.8595 21.2897 15.7658 20.5449 13.9262 19.352C12.2148 18.2645 10.7638 16.8134 9.67624 15.102C8.47914 13.2541 7.73417 11.1502 7.50166 8.96074C7.48396 8.76486 7.50724 8.56744 7.57001 8.38106C7.63279 8.19467 7.73369 8.02339 7.86629 7.87814C7.99888 7.73288 8.16027 7.61683 8.34018 7.53736C8.52009 7.45789 8.71457 7.41676 8.91124 7.41657H11.0362C11.38 7.41319 11.7133 7.53492 11.9739 7.75907C12.2346 7.98323 12.4048 8.29451 12.4529 8.63491C12.5426 9.31495 12.7089 9.98267 12.9487 10.6253C13.044 10.8789 13.0647 11.1544 13.0082 11.4193C12.9517 11.6842 12.8204 11.9273 12.63 12.1199L11.7304 13.0195C12.7388 14.7928 14.2071 16.2611 15.9804 17.2695L16.88 16.3699C17.0726 16.1795 17.3157 16.0482 17.5806 15.9917C17.8455 15.9352 18.121 15.9559 18.3746 16.0512C19.0172 16.291 19.6849 16.4573 20.365 16.547C20.7091 16.5955 21.0233 16.7688 21.248 17.034C21.4726 17.2991 21.5919 17.6375 21.5833 17.9849Z" fill="white"/>
</svg>
