<svg width="48" height="97" viewBox="0 0 48 97" fill="none" xmlns="http://www.w3.org/2000/svg">
<path d="M0 5C0 2.23858 2.23858 0 5 0H43C45.7614 0 48 2.23858 48 5V92C48 94.7614 45.7614 97 43 97H5C2.23858 97 0 94.7614 0 92V5Z" fill="white"/>
<path d="M3 17C3 15.3431 4.34315 14 6 14H42C43.6569 14 45 15.3431 45 17V30C45 31.6569 43.6569 33 42 33H6C4.34315 33 3 31.6569 3 30V17Z" fill="#F5F5F5"/>
<path d="M3 42C3 40.3431 4.34315 39 6 39H20C21.6569 39 23 40.3431 23 42V56C23 57.6569 21.6569 59 20 59H6C4.34315 59 3 57.6569 3 56V42Z" fill="#F5F5F5"/>
<path d="M3 65C3 63.3431 4.34315 62 6 62H20C21.6569 62 23 63.3431 23 65V79C23 80.6569 21.6569 82 20 82H6C4.34315 82 3 80.6569 3 79V65Z" fill="#F5F5F5"/>
<path d="M25 42C25 40.3431 26.3431 39 28 39H42C43.6569 39 45 40.3431 45 42V56C45 57.6569 43.6569 59 42 59H28C26.3431 59 25 57.6569 25 56V42Z" fill="#F5F5F5"/>
<path d="M25 65C25 63.3431 26.3431 62 28 62H42C43.6569 62 45 63.3431 45 65V79C45 80.6569 43.6569 82 42 82H28C26.3431 82 25 80.6569 25 79V65Z" fill="#F5F5F5"/>
</svg>
