<svg width="21" height="21" viewBox="0 0 21 21" fill="none" xmlns="http://www.w3.org/2000/svg">
<path d="M7.79085 18.8332L7.45752 16.1665C7.27696 16.0971 7.10682 16.0137 6.9471 15.9165C6.78738 15.8193 6.63113 15.7151 6.47835 15.604L3.99919 16.6457L1.70752 12.6873L3.85335 11.0623C3.83946 10.9651 3.83252 10.8714 3.83252 10.7811V10.2186C3.83252 10.1283 3.83946 10.0346 3.85335 9.93734L1.70752 8.31234L3.99919 4.354L6.47835 5.39567C6.63113 5.28456 6.79085 5.18039 6.95752 5.08317C7.12419 4.98595 7.29085 4.90262 7.45752 4.83317L7.79085 2.1665H12.3742L12.7075 4.83317C12.8881 4.90262 13.0582 4.98595 13.2179 5.08317C13.3777 5.18039 13.5339 5.28456 13.6867 5.39567L16.1659 4.354L18.4575 8.31234L16.3117 9.93734C16.3256 10.0346 16.3325 10.1283 16.3325 10.2186V10.7811C16.3325 10.8714 16.3186 10.9651 16.2909 11.0623L18.4367 12.6873L16.145 16.6457L13.6867 15.604C13.5339 15.7151 13.3742 15.8193 13.2075 15.9165C13.0409 16.0137 12.8742 16.0971 12.7075 16.1665L12.3742 18.8332H7.79085ZM10.1242 13.4165C10.9297 13.4165 11.6172 13.1318 12.1867 12.5623C12.7561 11.9929 13.0409 11.3054 13.0409 10.4998C13.0409 9.69428 12.7561 9.00678 12.1867 8.43734C11.6172 7.86789 10.9297 7.58317 10.1242 7.58317C9.30474 7.58317 8.61377 7.86789 8.05127 8.43734C7.48877 9.00678 7.20752 9.69428 7.20752 10.4998C7.20752 11.3054 7.48877 11.9929 8.05127 12.5623C8.61377 13.1318 9.30474 13.4165 10.1242 13.4165Z" fill="#1B1B1B"/>
</svg>
