<svg width="28" height="28" viewBox="0 0 28 28" fill="none" xmlns="http://www.w3.org/2000/svg">
<g clip-path="url(#clip0_1198_6975)" transform="translate(-4 -4)">
<path d="M8.46107 20.1393C7.02686 23.0754 8.35027 26.445 11.395 27.6313L16.4241 29.5907C19.8469 30.9243 23.2745 29.0794 24.0248 25.4777C24.809 21.6958 22.5194 17.454 18.9182 16.0508C15.0125 14.5291 10.3042 16.3709 8.46107 20.1393Z" fill="#EFB8C8" stroke="#EFB8C8" stroke-width="1.5" stroke-linecap="round" stroke-linejoin="round"/>
<path d="M18.609 12.9071C20.0586 13.4719 21.6917 12.7546 22.2565 11.305C22.8213 9.85532 22.104 8.22228 20.6544 7.65747C19.2047 7.09264 17.5717 7.80993 17.0069 9.25956C16.442 10.7092 17.1593 12.3422 18.609 12.9071Z" fill="#EFB8C8" stroke="#EFB8C8" stroke-width="1.5" stroke-linecap="round" stroke-linejoin="round"/>
<path d="M25.0999 17.0178C26.2596 17.4697 27.566 16.8959 28.0179 15.7361C28.4697 14.5764 27.8959 13.27 26.7362 12.8182C25.5766 12.3663 24.2701 12.9401 23.8182 14.0998C23.3663 15.2595 23.9403 16.566 25.0999 17.0178Z" fill="#EFB8C8" stroke="#EFB8C8" stroke-width="1.5" stroke-linecap="round" stroke-linejoin="round"/>
<path d="M27.5366 22.6741C28.4063 23.0129 29.3862 22.5826 29.7251 21.7128C30.064 20.8429 29.6336 19.8631 28.7638 19.5243C27.8941 19.1854 26.9143 19.6157 26.5753 20.4856C26.2365 21.3553 26.6668 22.3352 27.5366 22.6741Z" fill="#EFB8C8" stroke="#EFB8C8" stroke-width="1.5" stroke-linecap="round" stroke-linejoin="round"/>
<path d="M10.4754 13.6077C11.6351 14.0596 12.9415 13.4857 13.3934 12.326C13.8452 11.1663 13.2714 9.85985 12.1117 9.408C10.952 8.95614 9.64554 9.52997 9.19369 10.6897C8.74184 11.8494 9.31565 13.1559 10.4754 13.6077Z" fill="#EFB8C8" stroke="#EFB8C8" stroke-width="1.5" stroke-linecap="round" stroke-linejoin="round"/>
</g>
<defs>
<clipPath id="clip0_1198_6975">
<rect width="27.0432" height="27.0432" fill="white" transform="translate(10.6836 0.749512) rotate(21.2872)"/>
</clipPath>
</defs>
</svg>
