<svg width="30" height="30" viewBox="0 0 30 30" fill="none" xmlns="http://www.w3.org/2000/svg">
<rect width="30" height="30" rx="8" fill="#6C54F6"/>
<g clip-path="url(#clip0_1482_13535)">
<path fill-rule="evenodd" clip-rule="evenodd" d="M20.0087 9.13789C20.1838 9.06422 20.3754 9.03881 20.5636 9.06431C20.7518 9.08981 20.9297 9.16528 21.0788 9.28288C21.2279 9.40047 21.3428 9.55589 21.4115 9.73295C21.4802 9.91001 21.5001 10.1022 21.4693 10.2896L19.8628 20.0342C19.707 20.9741 18.6756 21.5132 17.8136 21.045C17.0925 20.6533 16.0215 20.0498 15.0582 19.4201C14.5765 19.1048 13.1011 18.0955 13.2824 17.3772C13.4382 16.7631 15.9174 14.4554 17.3341 13.0833C17.8901 12.5443 17.6365 12.2333 16.9799 12.7291C15.3493 13.9602 12.7313 15.8324 11.8657 16.3594C11.1021 16.824 10.7041 16.9034 10.2281 16.824C9.35964 16.6795 8.55427 16.4557 7.89694 16.183C7.00869 15.8146 7.05189 14.5935 7.89623 14.2379L20.0087 9.13789Z" fill="white"/>
</g>
<defs>
<clipPath id="clip0_1482_13535">
<rect width="17" height="17" fill="white" transform="translate(6 6)"/>
</clipPath>
</defs>
</svg>
